# xmcd
#
# Track frame offsets:
# 150
# 18617
# 36407
#
# Disc length: 729 seconds
#
#
# Revision: 0
# Processed by: cddbd v1.4PL0 Copyright (c) Steve Scherf et al.
# Submitted via: FreeRIP 2.30 
#
DISCID=2102d703
DTITLE=Human Nature - Wishes
DYEAR=1997
DGENRE=Ballad
TTITLE0=Wishes - Human Nature
TTITLE1=You Know - Human Nature
TTITLE2=Wishes II - Human Nature
EXTD=
EXTT0=
EXTT1=
EXTT2=
PLAYORDER=
